<?xml version="1.0" encoding="UTF-8"?>
<svg xmlns="http://www.w3.org/2000/svg" xmlns:xlink="http://www.w3.org/1999/xlink" width="699.440002pt" height="314.959991pt" viewBox="0 0 699.440002 314.959991" version="1.1">
<g id="surface1">
<path style=" stroke:none;fill-rule:nonzero;fill:rgb(25%,25%,25%);fill-opacity:1;" d="M 632.480469 217.519531 C 629.761719 217.519531 627.601562 215.359375 627.601562 212.640625 C 627.601562 210 629.761719 207.761719 632.480469 207.761719 C 635.121094 207.761719 637.359375 209.921875 637.359375 212.640625 C 637.359375 215.28125 635.121094 217.519531 632.480469 217.519531 M 632.480469 208.71875 C 630.320312 208.71875 628.558594 210.480469 628.558594 212.640625 C 628.558594 214.800781 630.320312 216.558594 632.480469 216.558594 C 634.640625 216.558594 636.398438 214.800781 636.398438 212.640625 C 636.398438 210.480469 634.640625 208.71875 632.480469 208.71875 M 634.960938 215.199219 L 633.839844 215.199219 L 632.878906 213.359375 L 631.601562 213.359375 L 631.601562 215.199219 L 630.558594 215.199219 L 630.558594 209.839844 L 633.121094 209.839844 C 634.238281 209.839844 634.960938 210.558594 634.960938 211.601562 C 634.960938 212.398438 634.480469 212.960938 633.839844 213.199219 Z M 633.039062 212.398438 C 633.441406 212.398438 633.839844 212.160156 633.839844 211.601562 C 633.839844 210.960938 633.519531 210.800781 633.039062 210.800781 L 631.441406 210.800781 L 631.441406 212.398438 Z M 633.039062 212.398438 "/>
<path style=" stroke:none;fill-rule:nonzero;fill:rgb(25%,25%,25%);fill-opacity:1;" d="M 124.078125 207.28125 L 136.558594 207.28125 L 136.558594 241.28125 L 158.238281 241.28125 L 158.238281 252.160156 L 124.078125 252.160156 Z M 124.078125 207.28125 "/>
<path style=" stroke:none;fill-rule:nonzero;fill:rgb(25%,25%,25%);fill-opacity:1;" d="M 171.121094 229.839844 L 171.121094 229.679688 C 171.121094 216.800781 181.519531 206.320312 195.359375 206.320312 C 209.199219 206.320312 219.441406 216.640625 219.441406 229.519531 L 219.441406 229.679688 C 219.441406 242.558594 209.039062 253.039062 195.199219 253.039062 C 181.359375 253.039062 171.121094 242.71875 171.121094 229.839844 M 206.800781 229.839844 L 206.800781 229.679688 C 206.800781 223.199219 202.160156 217.601562 195.28125 217.601562 C 188.480469 217.601562 183.921875 223.121094 183.921875 229.601562 L 183.921875 229.761719 C 183.921875 236.238281 188.558594 241.839844 195.359375 241.839844 C 202.238281 241.839844 206.800781 236.320312 206.800781 229.839844 "/>
<path style=" stroke:none;fill-rule:nonzero;fill:rgb(25%,25%,25%);fill-opacity:1;" d="M 234.71875 232.480469 L 234.71875 207.28125 L 247.359375 207.28125 L 247.359375 232.238281 C 247.359375 238.71875 250.640625 241.761719 255.601562 241.761719 C 260.558594 241.761719 263.839844 238.800781 263.839844 232.558594 L 263.839844 207.28125 L 276.480469 207.28125 L 276.480469 232.160156 C 276.480469 246.640625 268.238281 252.960938 255.441406 252.960938 C 242.71875 252.960938 234.71875 246.558594 234.71875 232.480469 "/>
<path style=" stroke:none;fill-rule:nonzero;fill:rgb(25%,25%,25%);fill-opacity:1;" d="M 295.519531 207.28125 L 312.800781 207.28125 C 328.800781 207.28125 338.160156 216.480469 338.160156 229.441406 L 338.160156 229.601562 C 338.160156 242.558594 328.71875 252.160156 312.558594 252.160156 L 295.519531 252.160156 Z M 313.039062 241.121094 C 320.480469 241.121094 325.441406 237.039062 325.441406 229.761719 L 325.441406 229.601562 C 325.441406 222.398438 320.480469 218.238281 313.039062 218.238281 L 308 218.238281 L 308 241.039062 L 313.039062 241.039062 Z M 313.039062 241.121094 "/>
<path style=" stroke:none;fill-rule:nonzero;fill:rgb(25%,25%,25%);fill-opacity:1;" d="M 356.238281 207.28125 L 392.160156 207.28125 L 392.160156 218.160156 L 368.640625 218.160156 L 368.640625 225.839844 L 389.921875 225.839844 L 389.921875 236.160156 L 368.640625 236.160156 L 368.640625 252.160156 L 356.238281 252.160156 Z M 356.238281 207.28125 "/>
<path style=" stroke:none;fill-rule:nonzero;fill:rgb(25%,25%,25%);fill-opacity:1;" d="M 409.441406 207.28125 L 421.839844 207.28125 L 421.839844 241.28125 L 443.601562 241.28125 L 443.601562 252.160156 L 409.441406 252.160156 Z M 409.441406 207.28125 "/>
<path style=" stroke:none;fill-rule:nonzero;fill:rgb(25%,25%,25%);fill-opacity:1;" d="M 476.078125 206.960938 L 488.078125 206.960938 L 507.199219 252.160156 L 493.839844 252.160156 L 490.558594 244.160156 L 473.28125 244.160156 L 470.078125 252.160156 L 457.039062 252.160156 Z M 487.039062 234.480469 L 482.078125 221.761719 L 477.039062 234.480469 Z M 487.039062 234.480469 "/>
<path style=" stroke:none;fill-rule:nonzero;fill:rgb(25%,25%,25%);fill-opacity:1;" d="M 523.199219 207.28125 L 544.398438 207.28125 C 551.28125 207.28125 556 209.039062 559.039062 212.160156 C 561.679688 214.71875 563.039062 218.160156 563.039062 222.640625 L 563.039062 222.800781 C 563.039062 229.679688 559.359375 234.238281 553.839844 236.558594 L 564.558594 252.238281 L 550.160156 252.238281 L 541.121094 238.640625 L 535.679688 238.640625 L 535.679688 252.238281 L 523.199219 252.238281 Z M 543.839844 228.800781 C 548.078125 228.800781 550.480469 226.71875 550.480469 223.519531 L 550.480469 223.359375 C 550.480469 219.839844 547.921875 218.078125 543.761719 218.078125 L 535.601562 218.078125 L 535.601562 228.800781 Z M 543.839844 228.800781 "/>
<path style=" stroke:none;fill-rule:nonzero;fill:rgb(25%,25%,25%);fill-opacity:1;" d="M 580.960938 207.28125 L 617.039062 207.28125 L 617.039062 217.839844 L 593.28125 217.839844 L 593.28125 224.640625 L 614.800781 224.640625 L 614.800781 234.480469 L 593.28125 234.480469 L 593.28125 241.601562 L 617.359375 241.601562 L 617.359375 252.160156 L 580.960938 252.160156 Z M 580.960938 207.28125 "/>
<path style=" stroke:none;fill-rule:nonzero;fill:rgb(25%,25%,25%);fill-opacity:1;" d="M 96.878906 235.121094 C 95.121094 239.039062 91.441406 241.839844 86.640625 241.839844 C 79.839844 241.839844 75.199219 236.160156 75.199219 229.761719 L 75.199219 229.601562 C 75.199219 223.121094 79.761719 217.601562 86.558594 217.601562 C 91.679688 217.601562 95.601562 220.71875 97.199219 225.039062 L 110.320312 225.039062 C 108.238281 214.320312 98.800781 206.398438 86.640625 206.398438 C 72.800781 206.398438 62.398438 216.878906 62.398438 229.761719 L 62.398438 229.921875 C 62.398438 242.800781 72.640625 253.121094 86.480469 253.121094 C 98.320312 253.121094 107.601562 245.441406 110 235.199219 Z M 96.878906 235.121094 "/>
<path style=" stroke:none;fill-rule:nonzero;fill:rgb(100%,100%,100%);fill-opacity:1;" d="M 602.320312 135.679688 L 568 116 L 562.078125 113.441406 L 421.679688 114.398438 L 421.679688 185.679688 L 602.320312 185.679688 Z M 602.320312 135.679688 "/>
<path style=" stroke:none;fill-rule:nonzero;fill:rgb(59%,59%,59%);fill-opacity:1;" d="M 539.839844 179.121094 C 541.519531 173.359375 540.878906 168.078125 538.078125 164.160156 C 535.519531 160.558594 531.199219 158.480469 526 158.238281 L 427.519531 156.960938 C 426.878906 156.960938 426.320312 156.640625 426 156.160156 C 425.679688 155.679688 425.601562 155.039062 425.761719 154.398438 C 426.078125 153.441406 427.039062 152.71875 428.078125 152.640625 L 527.441406 151.359375 C 539.199219 150.800781 552 141.28125 556.480469 129.601562 L 562.160156 114.800781 C 562.398438 114.160156 562.480469 113.519531 562.320312 112.878906 C 555.921875 83.921875 530.078125 62.320312 499.199219 62.320312 C 470.71875 62.320312 446.558594 80.71875 437.921875 106.238281 C 432.320312 102.078125 425.199219 99.839844 417.519531 100.558594 C 403.839844 101.921875 392.878906 112.878906 391.519531 126.558594 C 391.199219 130.078125 391.441406 133.519531 392.238281 136.71875 C 369.921875 137.359375 352.078125 155.601562 352.078125 178.078125 C 352.078125 180.078125 352.238281 182.078125 352.480469 184.078125 C 352.640625 185.039062 353.441406 185.761719 354.398438 185.761719 L 536.160156 185.761719 C 537.199219 185.761719 538.160156 185.039062 538.480469 184 Z M 539.839844 179.121094 "/>
<path style=" stroke:none;fill-rule:nonzero;fill:rgb(72%,72%,72%);fill-opacity:1;" d="M 571.199219 115.839844 C 570.320312 115.839844 569.359375 115.839844 568.480469 115.921875 C 567.839844 115.921875 567.28125 116.398438 567.039062 117.039062 L 563.199219 130.398438 C 561.519531 136.160156 562.160156 141.441406 564.960938 145.359375 C 567.519531 148.960938 571.839844 151.039062 577.039062 151.28125 L 598 152.558594 C 598.640625 152.558594 599.199219 152.878906 599.519531 153.359375 C 599.839844 153.839844 599.921875 154.558594 599.761719 155.121094 C 599.441406 156.078125 598.480469 156.800781 597.441406 156.878906 L 575.601562 158.160156 C 563.761719 158.71875 551.039062 168.238281 546.558594 179.921875 L 544.960938 184 C 544.640625 184.800781 545.199219 185.601562 546.078125 185.601562 L 621.121094 185.601562 C 622 185.601562 622.800781 185.039062 623.039062 184.160156 C 624.320312 179.519531 625.039062 174.640625 625.039062 169.601562 C 625.039062 140 600.878906 115.839844 571.199219 115.839844 "/>
</g>
</svg>
